<?xml version="1.0" standalone="no"?><!DOCTYPE svg PUBLIC "-//W3C//DTD SVG 1.1//EN" "http://www.w3.org/Graphics/SVG/1.1/DTD/svg11.dtd"><svg t="1723167849195" class="icon" viewBox="0 0 1024 1024" version="1.1" xmlns="http://www.w3.org/2000/svg" p-id="3738" xmlns:xlink="http://www.w3.org/1999/xlink" width="200" height="200"><path d="M903.1 24.8c-8.6 0-17.1 0.9-25.4 2.7l-450.5 96.9c-55.3 11.9-95.5 61.6-95.5 118.2v553.1c0 70.7-57.5 128.3-128.3 128.3-70.7 0-128.3-57.5-128.3-128.3s57.5-128.3 128.3-128.3c20.8 0 37.6-16.8 37.6-37.6s-16.8-37.6-37.6-37.6C91.3 592.2 0 683.5 0 795.7s91.3 203.5 203.5 203.5S407 907.9 407 795.7V242.6c0-21.4 15.2-40.1 36.1-44.6l450.5-96.9c3.1-0.7 6.4-1 9.6-1 25.2 0 45.6 20.5 45.7 45.7v550.4c0 70.7-57.5 128.2-128.2 128.2-70.7 0-128.3-57.5-128.3-128.2 0-70.7 57.5-128.3 128.2-128.3 20.8 0 37.6-16.8 37.6-37.6s-16.8-37.6-37.6-37.6c-112.2 0-203.5 91.3-203.5 203.5s91.3 203.5 203.5 203.5 203.4-91.3 203.5-203.5V145.7c-0.1-66.6-54.4-120.9-121-120.9z" fill="#707070" p-id="3739"></path></svg>